<?xml version="1.0" standalone="no"?>
<!DOCTYPE svg PUBLIC "-//W3C//DTD SVG 20010904//EN"
 "http://www.w3.org/TR/2001/REC-SVG-20010904/DTD/svg10.dtd">
<svg version="1.0" xmlns="http://www.w3.org/2000/svg"
 width="500.000000pt" height="500.000000pt" viewBox="0 0 500.000000 500.000000"
 preserveAspectRatio="xMidYMid meet">
<metadata>
Created by potrace 1.14, written by Peter Selinger 2001-2017
</metadata>
<g transform="translate(0.000000,500.000000) scale(0.100000,-0.100000)"
fill="#000000" stroke="none">
<path d="M2310 4150 c-512 -71 -933 -334 -1204 -752 -418 -644 -334 -1490 203
-2051 347 -362 862 -550 1359 -496 570 61 1060 403 1317 917 263 526 221 1152
-110 1652 -246 372 -622 621 -1070 710 -124 25 -385 35 -495 20z m520 -50
c495 -101 925 -441 1146 -905 41 -86 93 -232 109 -302 5 -28 4 -33 -12 -34
-15 0 -15 -1 3 -9 23 -9 26 -20 45 -165 16 -127 6 -394 -20 -513 -48 -218
-147 -444 -269 -617 -109 -153 -303 -336 -465 -438 -344 -218 -788 -299 -1193
-217 -658 133 -1171 662 -1284 1324 -23 134 -27 382 -9 512 59 423 310 836
661 1087 113 81 311 184 433 225 260 89 582 108 855 52z"/>
<path d="M2460 3930 c0 -18 3 -19 20 -8 26 17 29 11 21 -49 -7 -47 -5 -52 14
-55 20 -4 21 -1 17 54 -4 49 -2 58 12 58 9 0 16 -7 16 -15 0 -8 5 -15 10 -15
6 0 10 8 10 19 0 19 -34 31 -91 31 -22 0 -29 -5 -29 -20z"/>
<path d="M2265 3932 c-46 -4 -62 -12 -47 -21 7 -4 13 -32 15 -62 l2 -55 40 7
c22 5 43 8 47 9 3 0 4 9 1 20 -5 19 -6 19 -18 4 -14 -20 -45 -12 -45 11 0 12
6 15 19 10 16 -5 18 -2 14 15 -4 15 -9 18 -18 10 -9 -8 -14 -6 -19 6 -3 9 -4
20 0 25 8 13 32 11 37 -3 2 -7 8 -10 12 -6 14 14 -11 33 -40 30z"/>
<path d="M2736 3903 c3 -10 -2 -39 -10 -63 -8 -24 -14 -45 -13 -46 1 0 21 -6
44 -11 35 -9 43 -8 48 5 7 20 -2 29 -16 15 -16 -16 -39 -5 -39 18 0 21 30 27
31 7 0 -7 5 -2 10 11 10 26 3 43 -10 22 -11 -17 -23 2 -15 23 8 21 24 20 40
-1 12 -17 13 -17 14 -1 0 21 -6 24 -52 33 -33 6 -36 5 -32 -12z"/>
<path d="M2020 3873 c-8 -3 -26 -10 -40 -15 -16 -6 -20 -12 -12 -16 15 -10 44
-91 36 -104 -4 -6 2 -7 17 -3 55 17 69 25 69 39 0 23 -17 28 -23 6 -7 -26 -33
-26 -40 1 -5 17 -2 20 14 16 21 -6 24 1 8 23 -8 11 -12 12 -16 2 -7 -18 -23
-4 -23 20 0 16 4 19 25 14 19 -5 23 -3 19 9 -6 16 -10 17 -34 8z"/>
<path d="M2982 3838 c4 -22 -23 -87 -40 -97 -15 -9 -14 -11 8 -19 20 -8 26 -6
28 7 6 27 22 37 22 14 0 -31 10 -53 25 -53 10 0 11 7 5 30 -6 22 -5 30 4 30
21 0 38 27 32 48 -4 10 -22 26 -41 35 -43 20 -47 21 -43 5z m56 -41 c2 -10 -4
-20 -13 -23 -21 -9 -28 0 -20 26 8 24 28 22 33 -3z"/>
<path d="M1798 3774 c-4 -3 0 -22 8 -41 19 -45 14 -50 -24 -18 -16 14 -33 25
-37 25 -8 0 -2 -42 11 -74 7 -18 6 -18 -19 -1 -15 9 -27 24 -27 31 0 17 -5 17
-31 3 -19 -10 -17 -12 22 -42 90 -69 83 -66 77 -27 -4 19 -10 44 -14 55 -6 15
1 12 30 -13 21 -18 40 -31 43 -28 7 7 -19 136 -27 136 -4 0 -9 -3 -12 -6z"/>
<path d="M3216 3696 c-3 -13 -18 -37 -34 -54 -26 -28 -27 -31 -10 -41 21 -13
31 -14 24 -2 -7 11 51 91 66 91 12 0 -21 29 -33 30 -4 0 -10 -11 -13 -24z"/>
<path d="M2278 3611 c-104 -23 -171 -44 -257 -83 -173 -77 -359 -239 -470
-407 -61 -94 -69 -111 -51 -111 6 0 10 4 10 9 0 5 27 50 59 99 111 165 259
295 436 381 125 61 204 86 347 107 343 50 700 -75 948 -332 72 -75 179 -217
193 -258 2 -6 7 -8 11 -5 14 13 -69 138 -162 246 -127 148 -354 286 -557 339
-138 36 -376 43 -507 15z"/>
<path d="M1512 3557 c-43 -46 -19 -84 41 -65 20 6 40 9 43 5 14 -13 -7 -37
-32 -37 -22 0 -24 -2 -14 -15 10 -12 15 -12 36 1 31 21 40 52 20 72 -14 14
-21 14 -51 3 -39 -14 -57 -8 -48 15 4 10 14 14 29 11 27 -5 31 5 11 22 -11 8
-19 5 -35 -12z"/>
<path d="M3362 3531 c-54 -24 -61 -30 -47 -41 10 -8 15 -9 15 -1 0 16 25 14
40 -4 10 -12 9 -16 -4 -21 -16 -6 -16 -8 0 -25 17 -19 19 -17 46 47 15 36 28
68 28 70 0 8 -16 3 -78 -25z m30 -23 c-6 -6 -15 -8 -19 -4 -4 4 -1 11 7 16 19
12 27 3 12 -12z"/>
<path d="M1280 3206 c0 -9 -8 -13 -22 -9 -22 4 -23 4 -4 -11 11 -9 14 -16 8
-16 -7 0 -12 -5 -12 -11 0 -6 9 -8 20 -4 12 4 20 2 20 -5 0 -6 5 -8 10 -5 6 4
7 11 4 17 -4 6 0 14 7 19 11 7 10 9 -3 9 -11 0 -15 5 -12 15 4 8 1 15 -5 15
-6 0 -11 -6 -11 -14z"/>
<path d="M3650 3205 c0 -8 -6 -15 -13 -17 -10 -2 -10 -8 -2 -24 10 -21 10 -21
36 6 l26 26 -23 11 c-19 9 -24 8 -24 -2z"/>
<path d="M3670 3160 c0 -5 5 -10 10 -10 6 0 10 5 10 10 0 6 -4 10 -10 10 -5 0
-10 -4 -10 -10z"/>
<path d="M1422 2922 c-26 -28 -85 -112 -132 -186 -46 -75 -108 -163 -138 -196
-50 -56 -56 -60 -98 -60 -51 0 -84 -14 -84 -35 0 -22 17 -18 23 5 4 16 13 20
49 20 l43 -1 -45 -25 c-46 -25 -20 -24 37 3 26 12 41 12 92 2 87 -17 161 -6
242 34 38 19 66 37 62 41 -4 4 0 4 8 1 21 -8 51 38 47 73 -4 36 -40 42 -62 11
-19 -27 -12 -40 8 -14 19 26 50 13 41 -17 -10 -31 -25 -47 -18 -18 5 20 4 21
-16 9 -11 -8 -21 -19 -21 -25 0 -21 -90 -73 -148 -85 -52 -10 -139 -7 -176 7
-12 4 -3 20 38 69 29 34 80 107 112 161 57 96 130 204 139 204 2 0 2 -8 -2
-17 -3 -10 9 4 26 31 18 26 29 51 26 54 -3 3 -27 -17 -53 -46z"/>
<path d="M2830 2917 c-22 -25 -23 -25 -149 -20 -101 5 -133 3 -163 -10 -21 -9
-38 -21 -38 -26 0 -14 -1 -14 45 9 29 15 59 20 115 20 84 0 150 -9 150 -20 0
-4 -27 -51 -59 -105 -33 -53 -68 -119 -77 -146 -10 -27 -20 -49 -23 -49 -12 0
-11 -102 0 -116 13 -16 45 -19 53 -5 3 4 -6 6 -19 3 -23 -4 -25 -1 -25 32 0
20 11 64 25 99 33 80 122 241 151 273 13 13 21 24 18 24 -2 0 3 11 12 25 23
35 11 43 -16 12z"/>
<path d="M3975 2916 c-16 -24 -17 -24 -143 -19 -102 5 -134 3 -164 -10 -21 -9
-38 -21 -38 -27 0 -6 12 -3 27 7 22 15 49 18 149 18 67 0 125 -3 129 -7 4 -4
-16 -44 -43 -90 -55 -91 -112 -206 -112 -225 0 -23 -51 -47 -101 -47 -44 -1
-48 1 -43 19 3 11 17 31 31 45 24 25 24 25 39 5 l16 -20 -4 20 c-2 13 -12 21
-29 23 -32 4 -82 -49 -77 -82 3 -18 9 -21 46 -18 43 2 55 -11 30 -36 -6 -6 -9
-15 -5 -18 4 -4 25 13 46 37 l40 44 1 -36 c0 -38 20 -65 42 -56 9 4 7 6 -4 6
-22 1 -26 17 -16 69 10 53 131 293 169 333 15 16 25 29 22 29 -3 0 2 11 11 24
9 15 12 27 6 31 -5 3 -16 -5 -25 -19z"/>
<path d="M3134 2870 c-6 -6 -44 -14 -85 -19 -57 -6 -64 -9 -29 -9 66 -2 143
18 129 33 -3 2 -10 0 -15 -5z"/>
<path d="M2868 2863 c6 -2 18 -2 25 0 6 3 1 5 -13 5 -14 0 -19 -2 -12 -5z"/>
<path d="M4008 2863 c6 -2 18 -2 25 0 6 3 1 5 -13 5 -14 0 -19 -2 -12 -5z"/>
<path d="M2923 2853 c9 -2 23 -2 30 0 6 3 -1 5 -18 5 -16 0 -22 -2 -12 -5z"/>
<path d="M3185 2796 c-14 -31 -25 -61 -25 -67 0 -5 -19 -30 -42 -55 -33 -35
-47 -44 -64 -40 -44 11 -74 -73 -38 -108 8 -9 20 -16 26 -16 17 0 1 -72 -43
-187 -22 -58 -37 -108 -34 -111 9 -10 18 9 70 146 26 70 51 131 55 135 7 8
202 58 207 53 2 -1 -2 -18 -7 -37 -14 -46 -13 -53 9 -80 l19 -23 62 57 c34 31
78 66 98 77 20 10 33 19 29 20 -18 1 -71 -34 -123 -80 -30 -28 -61 -50 -69
-50 -23 0 -18 44 10 100 31 61 32 80 3 53 -22 -20 -213 -71 -224 -60 -7 7 51
156 92 235 29 55 35 75 26 84 -9 9 -18 -2 -37 -46z m-81 -207 c-33 -80 -34
-81 -34 -31 0 29 7 49 26 72 15 17 28 29 30 27 2 -2 -8 -33 -22 -68z m-58 13
c-8 -9 -19 -13 -22 -9 -10 9 16 38 28 31 6 -4 4 -13 -6 -22z m14 -47 c0 -39
-22 -48 -40 -16 -8 16 -6 23 12 35 29 21 28 21 28 -19z"/>
<path d="M1959 2594 c-13 -15 -37 -35 -54 -45 -31 -19 -28 -27 4 -10 13 8 19
4 30 -20 20 -47 52 -47 142 -4 43 22 77 40 75 43 -2 2 -36 -13 -75 -32 -75
-38 -100 -43 -119 -24 -23 23 -13 47 25 63 39 16 55 33 47 47 -11 17 -52 7
-75 -18z m46 -4 c-3 -5 -11 -10 -16 -10 -6 0 -7 5 -4 10 3 6 11 10 16 10 6 0
7 -4 4 -10z"/>
<path d="M2371 2574 c-24 -31 -28 -74 -7 -74 8 0 18 5 22 11 4 7 11 2 18 -12
19 -37 38 -44 77 -25 19 9 45 26 59 37 15 12 -1 7 -38 -13 -53 -28 -64 -31
-72 -18 -10 16 -6 40 12 77 13 27 12 29 -23 38 -21 5 -31 1 -48 -21z m40 -12
c-12 -23 -41 -48 -41 -35 0 5 7 19 16 31 19 27 39 30 25 4z"/>
<path d="M1642 2577 c-6 -7 -20 -33 -31 -58 -36 -78 -20 -138 23 -88 12 14 40
47 63 74 l41 50 23 -20 22 -20 -18 28 c-9 15 -19 27 -21 27 -3 0 -40 -39 -108
-115 -27 -29 -27 -30 -21 -5 3 14 19 51 35 83 19 39 24 57 16 57 -8 0 -18 -6
-24 -13z"/>
<path d="M3523 2569 c4 -13 -5 -41 -24 -74 -18 -31 -29 -65 -28 -86 l1 -34 8
32 c4 17 19 52 34 78 34 56 42 105 19 105 -11 0 -14 -6 -10 -21z"/>
<path d="M2178 2563 c7 -3 16 -2 19 1 4 3 -2 6 -13 5 -11 0 -14 -3 -6 -6z"/>
<path d="M2772 2519 c-40 -28 -72 -53 -72 -56 0 -4 122 79 145 99 25 22 -8 3
-73 -43z"/>
<path d="M3919 2519 c-71 -49 -112 -82 -79 -64 18 10 141 95 155 107 25 22 -9
3 -76 -43z"/>
<path d="M2584 2544 c-18 -14 -18 -15 4 -4 12 6 22 13 22 15 0 8 -5 6 -26 -11z"/>
<path d="M1548 2533 c7 -3 16 -2 19 1 4 3 -2 6 -13 5 -11 0 -14 -3 -6 -6z"/>
<path d="M1803 2513 c9 -2 23 -2 30 0 6 3 -1 5 -18 5 -16 0 -22 -2 -12 -5z"/>
<path d="M2524 2358 l-20 -26 -130 5 c-104 5 -136 2 -166 -10 -21 -9 -38 -21
-38 -26 0 -15 6 -14 37 7 22 14 50 17 149 17 67 0 125 -3 129 -6 3 -4 -15 -40
-41 -80 -26 -41 -65 -111 -86 -155 -30 -64 -44 -84 -68 -94 -17 -7 -57 -37
-91 -66 -33 -30 -66 -54 -74 -54 -23 0 -18 44 10 100 30 59 33 80 8 58 -10 -9
-25 -18 -33 -21 -8 -3 -10 -6 -4 -6 8 -1 8 -12 -2 -38 -18 -52 -17 -67 5 -94
l20 -24 48 47 c50 48 119 98 136 98 5 0 7 -14 3 -35 -8 -41 7 -75 32 -75 10 0
51 23 91 51 l73 52 25 -32 c30 -37 63 -40 113 -9 19 12 60 32 90 45 30 12 48
23 39 23 -8 0 -52 -18 -98 -40 -93 -45 -116 -49 -131 -21 -13 25 -3 51 20 51
25 0 65 34 56 48 -13 21 -47 13 -79 -20 -46 -47 -178 -138 -201 -138 -16 0
-18 6 -14 45 9 76 164 375 196 375 7 0 10 5 7 10 -4 6 -1 17 5 25 7 8 10 20 8
26 -2 7 -12 2 -24 -13z m71 -328 c-3 -5 -11 -10 -16 -10 -6 0 -7 5 -4 10 3 6
11 10 16 10 6 0 7 -4 4 -10z"/>
<path d="M3039 2298 c-91 -130 -240 -462 -221 -493 3 -5 11 11 18 35 29 113
118 299 208 440 57 88 58 90 52 90 -3 0 -29 -33 -57 -72z"/>
<path d="M2117 2328 c-63 -84 -151 -246 -189 -345 -12 -32 -34 -74 -50 -94
-34 -42 -35 -82 -3 -87 37 -5 87 40 124 110 27 50 44 69 66 77 29 10 29 10 3
6 -23 -5 -28 -2 -28 15 0 26 -27 37 -51 22 -10 -7 -21 -12 -24 -12 -9 0 66
143 127 239 58 93 73 133 25 69z m-106 -337 c-11 -20 -69 -57 -77 -48 -2 2 12
23 32 46 24 27 40 39 46 33 6 -6 6 -17 -1 -31z m-37 -91 c-31 -57 -66 -90 -95
-90 -32 0 -22 39 19 77 40 39 94 75 100 68 2 -2 -9 -27 -24 -55z"/>
<path d="M2810 2304 c-24 -9 -29 -13 -14 -13 11 -1 29 6 40 14 22 17 20 17
-26 -1z"/>
<path d="M2558 2303 c6 -2 18 -2 25 0 6 3 1 5 -13 5 -14 0 -19 -2 -12 -5z"/>
<path d="M2613 2293 c9 -2 23 -2 30 0 6 3 -1 5 -18 5 -16 0 -22 -2 -12 -5z"/>
<path d="M2703 2283 c15 -2 37 -2 50 0 12 2 0 4 -28 4 -27 0 -38 -2 -22 -4z"/>
<path d="M1456 2058 c39 -127 207 -348 343 -452 208 -159 434 -236 694 -236
269 0 490 73 704 234 123 93 259 260 325 403 44 92 27 90 -20 -3 -129 -255
-352 -456 -615 -554 -132 -49 -225 -64 -392 -64 -142 0 -172 3 -265 28 -315
82 -577 291 -725 576 -45 88 -63 113 -49 68z"/>
<path d="M2805 1760 c-8 -13 5 -13 25 0 13 8 13 10 -2 10 -9 0 -20 -4 -23 -10z"/>
<path d="M3508 1665 c-22 -29 -23 -49 -3 -65 13 -11 22 -10 52 4 26 13 39 14
47 6 14 -14 -19 -41 -40 -33 -8 3 -14 1 -14 -5 0 -19 33 -23 51 -6 23 21 25
70 4 78 -9 3 -31 -2 -50 -11 -19 -9 -38 -14 -41 -10 -12 12 6 37 27 37 18 0
19 2 9 15 -17 20 -22 19 -42 -10z"/>
<path d="M1478 1640 c-31 -10 -59 -15 -63 -12 -3 3 -5 1 -5 -5 0 -6 6 -16 14
-22 11 -9 15 -8 21 6 6 17 7 17 21 -1 18 -25 18 -36 -1 -36 -13 0 -14 -4 -5
-20 6 -11 14 -20 18 -20 7 0 72 113 72 124 0 8 -7 7 -72 -14z m26 -25 c-4 -8
-10 -15 -15 -15 -5 0 -9 7 -9 15 0 8 7 15 15 15 9 0 12 -6 9 -15z"/>
<path d="M1665 1500 c4 -6 -12 -29 -34 -52 -38 -37 -40 -42 -24 -54 15 -11 19
-10 25 7 12 31 23 22 23 -18 0 -21 5 -38 13 -41 7 -2 13 2 11 9 -4 33 3 47 25
53 37 9 39 32 5 71 -28 32 -59 49 -44 25z m42 -46 c7 -20 -11 -38 -32 -30 -13
4 -14 10 -5 26 13 24 28 26 37 4z"/>
<path d="M3340 1480 c-25 -21 -30 -29 -18 -30 19 0 80 -69 72 -82 -13 -21 15
-5 44 25 29 30 31 35 17 47 -13 10 -15 9 -15 -8 0 -27 -17 -37 -35 -22 -19 16
-19 28 0 32 10 2 12 7 5 18 -8 13 -11 13 -19 1 -10 -16 -31 -6 -31 15 0 8 9
14 21 14 11 0 17 5 14 10 -10 15 -18 12 -55 -20z"/>
<path d="M3183 1364 c-7 -3 -9 -18 -6 -42 6 -34 5 -36 -11 -23 -9 8 -15 20
-12 28 3 7 2 13 -2 13 -13 0 -48 -29 -36 -30 9 0 23 -22 61 -98 1 -2 11 2 23
8 l21 11 -23 19 c-31 25 -17 35 21 15 30 -15 51 -13 51 4 0 5 -15 12 -32 18
-30 8 -33 13 -33 46 0 38 -1 39 -22 31z"/>
<path d="M1846 1344 c-9 -24 -7 -29 6 -16 7 7 16 12 20 12 16 0 7 -28 -22 -68
-28 -40 -29 -42 -11 -52 25 -13 34 -13 26 0 -8 13 44 102 56 94 5 -3 9 -15 9
-27 0 -18 2 -19 10 -7 15 24 13 28 -33 55 -51 29 -53 30 -61 9z"/>
<path d="M2928 1173 c-2 -38 -3 -70 -2 -71 2 -2 11 1 21 7 10 6 12 11 6 11
-21 0 -14 27 8 33 15 4 23 0 26 -12 3 -13 11 -17 24 -14 10 3 19 7 19 10 0 8
-83 103 -91 103 -4 0 -9 -30 -11 -67z m31 13 c9 -10 8 -15 -4 -20 -10 -4 -15
1 -15 14 0 24 4 25 19 6z"/>
<path d="M2253 1193 c-7 -2 -13 -18 -13 -34 0 -16 -4 -29 -9 -29 -17 0 -22
-33 -7 -48 8 -8 35 -16 61 -18 40 -2 45 -1 34 12 -10 12 -10 20 -1 35 10 16 9
19 -8 19 -14 0 -18 -5 -14 -17 5 -17 5 -17 -6 0 -9 13 -8 21 4 33 19 19 20 26
4 42 -13 13 -24 14 -45 5z m29 -35 c-15 -15 -26 -4 -18 18 5 13 9 15 18 6 9
-9 9 -15 0 -24z m-12 -58 c9 -17 8 -20 -10 -20 -13 0 -20 7 -20 20 0 11 4 20
10 20 5 0 14 -9 20 -20z"/>
<path d="M2674 1165 c-13 -13 -24 -33 -24 -43 0 -28 38 -72 61 -72 27 0 59 18
59 32 0 9 -3 9 -12 0 -21 -21 -57 -14 -69 12 -17 37 -4 76 25 76 14 0 26 -6
29 -12 2 -7 7 -10 11 -7 13 12 -5 35 -30 37 -15 1 -34 -8 -50 -23z"/>
<path d="M4284 2870 c-6 -6 -44 -14 -85 -20 l-74 -9 74 4 c49 3 80 9 90 20 8
8 13 15 10 15 -3 0 -10 -5 -15 -10z"/>
</g>
</svg>
